<svg id="visual" viewBox="0 0 960 540" width="100%" height="50%" xmlns="http://www.w3.org/2000/svg" xmlns:xlink="http://www.w3.org/1999/xlink" version="1.1">
    <script xmlns="" type="text/javascript" />
    <path d="M0 300L26.7 329.8C53.3 359.7 106.7 419.3 160 426.2C213.3 433 266.7 387 320 386.7C373.3 386.3 426.7 431.7 480 441.5C533.3 451.3 586.7 425.7 640 418.8C693.3 412 746.7 424 800 413.7C853.3 403.3 906.7 370.7 933.3 354.3L960 338L960 0L933.3 0C906.7 0 853.3 0 800 0C746.7 0 693.3 0 640 0C586.7 0 533.3 0 480 0C426.7 0 373.3 0 320 0C266.7 0 213.3 0 160 0C106.7 0 53.3 0 26.7 0L0 0Z" fill="#fa7268" />
    <path d="M0 338L26.7 341.5C53.3 345 106.7 352 160 359.3C213.3 366.7 266.7 374.3 320 379.7C373.3 385 426.7 388 480 391.8C533.3 395.7 586.7 400.3 640 403.8C693.3 407.3 746.7 409.7 800 415.2C853.3 420.7 906.7 429.3 933.3 433.7L960 438L960 0L933.3 0C906.7 0 853.3 0 800 0C746.7 0 693.3 0 640 0C586.7 0 533.3 0 480 0C426.7 0 373.3 0 320 0C266.7 0 213.3 0 160 0C106.7 0 53.3 0 26.7 0L0 0Z" fill="#f46767" />
    <path d="M0 285L26.7 278C53.3 271 106.7 257 160 257C213.3 257 266.7 271 320 284C373.3 297 426.7 309 480 300.5C533.3 292 586.7 263 640 259.7C693.3 256.3 746.7 278.7 800 280.5C853.3 282.3 906.7 263.7 933.3 254.3L960 245L960 0L933.3 0C906.7 0 853.3 0 800 0C746.7 0 693.3 0 640 0C586.7 0 533.3 0 480 0C426.7 0 373.3 0 320 0C266.7 0 213.3 0 160 0C106.7 0 53.3 0 26.7 0L0 0Z" fill="#ee5c67" />
    <path d="M0 193L26.7 211.7C53.3 230.3 106.7 267.7 160 288.5C213.3 309.3 266.7 313.7 320 301.8C373.3 290 426.7 262 480 262.8C533.3 263.7 586.7 293.3 640 300C693.3 306.7 746.7 290.3 800 284.7C853.3 279 906.7 284 933.3 286.5L960 289L960 0L933.3 0C906.7 0 853.3 0 800 0C746.7 0 693.3 0 640 0C586.7 0 533.3 0 480 0C426.7 0 373.3 0 320 0C266.7 0 213.3 0 160 0C106.7 0 53.3 0 26.7 0L0 0Z" fill="#e75167" />
    <path d="M0 229L26.7 214.5C53.3 200 106.7 171 160 169.3C213.3 167.7 266.7 193.3 320 197C373.3 200.7 426.7 182.3 480 189.3C533.3 196.3 586.7 228.7 640 243.8C693.3 259 746.7 257 800 251.8C853.3 246.7 906.7 238.3 933.3 234.2L960 230L960 0L933.3 0C906.7 0 853.3 0 800 0C746.7 0 693.3 0 640 0C586.7 0 533.3 0 480 0C426.7 0 373.3 0 320 0C266.7 0 213.3 0 160 0C106.7 0 53.3 0 26.7 0L0 0Z" fill="#df4667" />
    <path d="M0 97L26.7 109.8C53.3 122.7 106.7 148.3 160 167.7C213.3 187 266.7 200 320 190.2C373.3 180.3 426.7 147.7 480 138.7C533.3 129.7 586.7 144.3 640 149.3C693.3 154.3 746.7 149.7 800 155.7C853.3 161.7 906.7 178.3 933.3 186.7L960 195L960 0L933.3 0C906.7 0 853.3 0 800 0C746.7 0 693.3 0 640 0C586.7 0 533.3 0 480 0C426.7 0 373.3 0 320 0C266.7 0 213.3 0 160 0C106.7 0 53.3 0 26.7 0L0 0Z" fill="#d73b67" />
    <path d="M0 86L26.7 82.3C53.3 78.7 106.7 71.3 160 77.3C213.3 83.3 266.7 102.7 320 107C373.3 111.3 426.7 100.7 480 105.8C533.3 111 586.7 132 640 132.3C693.3 132.7 746.7 112.3 800 103C853.3 93.7 906.7 95.3 933.3 96.2L960 97L960 0L933.3 0C906.7 0 853.3 0 800 0C746.7 0 693.3 0 640 0C586.7 0 533.3 0 480 0C426.7 0 373.3 0 320 0C266.7 0 213.3 0 160 0C106.7 0 53.3 0 26.7 0L0 0Z" fill="#cf3068" />
    <path d="M0 77L26.7 68C53.3 59 106.7 41 160 34C213.3 27 266.7 31 320 30.2C373.3 29.3 426.7 23.7 480 26.5C533.3 29.3 586.7 40.7 640 49.7C693.3 58.7 746.7 65.3 800 60.8C853.3 56.3 906.7 40.7 933.3 32.8L960 25L960 0L933.3 0C906.7 0 853.3 0 800 0C746.7 0 693.3 0 640 0C586.7 0 533.3 0 480 0C426.7 0 373.3 0 320 0C266.7 0 213.3 0 160 0C106.7 0 53.3 0 26.7 0L0 0Z" fill="#c62368" />
</svg>